<mxfile host="app.diagrams.net" modified="2024-03-21T11:31:38.551Z" agent="Mozilla/5.0 (Windows NT 10.0; Win64; x64) AppleWebKit/537.36 (KHTML, like Gecko) Chrome/122.0.0.0 Safari/537.36" etag="cwHYiWbafN-KDtaVOkuB" version="24.0.7" type="github">
  <diagram name="Page-1" id="y5qhtntw8HqzYYSQYSKg">
    <mxGraphModel dx="742" dy="425" grid="1" gridSize="10" guides="1" tooltips="1" connect="1" arrows="1" fold="1" page="1" pageScale="1" pageWidth="827" pageHeight="1169" math="0" shadow="0">
      <root>
        <mxCell id="0" />
        <mxCell id="1" parent="0" />
        <mxCell id="KXOY8twD4fQq9Z1rYFRX-1" value="Client" style="shape=umlActor;verticalLabelPosition=bottom;verticalAlign=top;html=1;outlineConnect=0;" vertex="1" parent="1">
          <mxGeometry x="40" y="120" width="30" height="60" as="geometry" />
        </mxCell>
        <mxCell id="KXOY8twD4fQq9Z1rYFRX-2" value="Restaurateur" style="shape=umlActor;verticalLabelPosition=bottom;verticalAlign=top;html=1;outlineConnect=0;" vertex="1" parent="1">
          <mxGeometry x="40" y="320" width="30" height="60" as="geometry" />
        </mxCell>
        <mxCell id="KXOY8twD4fQq9Z1rYFRX-3" value="Voir les plats" style="ellipse;whiteSpace=wrap;html=1;" vertex="1" parent="1">
          <mxGeometry x="200" y="180" width="100" height="60" as="geometry" />
        </mxCell>
        <mxCell id="KXOY8twD4fQq9Z1rYFRX-4" style="edgeStyle=orthogonalEdgeStyle;rounded=0;orthogonalLoop=1;jettySize=auto;html=1;exitX=0.5;exitY=1;exitDx=0;exitDy=0;" edge="1" parent="1" source="KXOY8twD4fQq9Z1rYFRX-3" target="KXOY8twD4fQq9Z1rYFRX-3">
          <mxGeometry relative="1" as="geometry" />
        </mxCell>
        <mxCell id="KXOY8twD4fQq9Z1rYFRX-5" value="Faire une commande" style="ellipse;whiteSpace=wrap;html=1;" vertex="1" parent="1">
          <mxGeometry x="200" y="100" width="100" height="60" as="geometry" />
        </mxCell>
        <mxCell id="KXOY8twD4fQq9Z1rYFRX-6" value="Se connecter" style="ellipse;whiteSpace=wrap;html=1;" vertex="1" parent="1">
          <mxGeometry x="200" y="260" width="100" height="60" as="geometry" />
        </mxCell>
        <mxCell id="KXOY8twD4fQq9Z1rYFRX-7" value="Payer cette commande" style="ellipse;whiteSpace=wrap;html=1;" vertex="1" parent="1">
          <mxGeometry x="414" y="180" width="100" height="60" as="geometry" />
        </mxCell>
        <mxCell id="KXOY8twD4fQq9Z1rYFRX-8" value="GÃ©rer les plats CRUD" style="ellipse;whiteSpace=wrap;html=1;" vertex="1" parent="1">
          <mxGeometry x="200" y="330" width="100" height="60" as="geometry" />
        </mxCell>
        <mxCell id="KXOY8twD4fQq9Z1rYFRX-9" value="Consuter les commandes" style="ellipse;whiteSpace=wrap;html=1;" vertex="1" parent="1">
          <mxGeometry x="200" y="400" width="100" height="60" as="geometry" />
        </mxCell>
        <mxCell id="KXOY8twD4fQq9Z1rYFRX-10" value="Application de commande de plats en ligne" style="text;html=1;align=center;verticalAlign=middle;resizable=0;points=[];autosize=1;strokeColor=none;fillColor=none;fontSize=15;fontStyle=1" vertex="1" parent="1">
          <mxGeometry x="160" width="310" height="30" as="geometry" />
        </mxCell>
        <mxCell id="KXOY8twD4fQq9Z1rYFRX-14" value="" style="endArrow=none;html=1;rounded=0;strokeWidth=2;" edge="1" parent="1">
          <mxGeometry width="50" height="50" relative="1" as="geometry">
            <mxPoint x="80" y="160" as="sourcePoint" />
            <mxPoint x="120" y="160" as="targetPoint" />
          </mxGeometry>
        </mxCell>
        <mxCell id="KXOY8twD4fQq9Z1rYFRX-15" value="" style="endArrow=none;html=1;rounded=0;strokeWidth=2;" edge="1" parent="1">
          <mxGeometry width="50" height="50" relative="1" as="geometry">
            <mxPoint x="90" y="359.5" as="sourcePoint" />
            <mxPoint x="130" y="359.5" as="targetPoint" />
          </mxGeometry>
        </mxCell>
        <mxCell id="KXOY8twD4fQq9Z1rYFRX-17" value="" style="endArrow=none;html=1;rounded=0;strokeWidth=2;" edge="1" parent="1">
          <mxGeometry width="50" height="50" relative="1" as="geometry">
            <mxPoint x="130" y="440" as="sourcePoint" />
            <mxPoint x="130" y="220" as="targetPoint" />
          </mxGeometry>
        </mxCell>
        <mxCell id="KXOY8twD4fQq9Z1rYFRX-18" value="" style="endArrow=none;html=1;rounded=0;strokeWidth=2;" edge="1" parent="1">
          <mxGeometry width="50" height="50" relative="1" as="geometry">
            <mxPoint x="120" y="280" as="sourcePoint" />
            <mxPoint x="120" y="130" as="targetPoint" />
          </mxGeometry>
        </mxCell>
        <mxCell id="KXOY8twD4fQq9Z1rYFRX-19" value="" style="endArrow=classic;html=1;rounded=0;strokeWidth=2;" edge="1" parent="1">
          <mxGeometry width="50" height="50" relative="1" as="geometry">
            <mxPoint x="120" y="129.66" as="sourcePoint" />
            <mxPoint x="190" y="130" as="targetPoint" />
          </mxGeometry>
        </mxCell>
        <mxCell id="KXOY8twD4fQq9Z1rYFRX-20" value="" style="endArrow=classic;html=1;rounded=0;strokeWidth=2;" edge="1" parent="1">
          <mxGeometry width="50" height="50" relative="1" as="geometry">
            <mxPoint x="120" y="199.66" as="sourcePoint" />
            <mxPoint x="190" y="199.66" as="targetPoint" />
          </mxGeometry>
        </mxCell>
        <mxCell id="KXOY8twD4fQq9Z1rYFRX-21" value="" style="endArrow=classic;html=1;rounded=0;strokeWidth=2;" edge="1" parent="1">
          <mxGeometry width="50" height="50" relative="1" as="geometry">
            <mxPoint x="120" y="280" as="sourcePoint" />
            <mxPoint x="190" y="280" as="targetPoint" />
          </mxGeometry>
        </mxCell>
        <mxCell id="KXOY8twD4fQq9Z1rYFRX-22" value="" style="endArrow=classic;html=1;rounded=0;strokeWidth=2;" edge="1" parent="1">
          <mxGeometry width="50" height="50" relative="1" as="geometry">
            <mxPoint x="130" y="300" as="sourcePoint" />
            <mxPoint x="190" y="300" as="targetPoint" />
          </mxGeometry>
        </mxCell>
        <mxCell id="KXOY8twD4fQq9Z1rYFRX-23" value="" style="endArrow=classic;html=1;rounded=0;strokeWidth=2;" edge="1" parent="1">
          <mxGeometry width="50" height="50" relative="1" as="geometry">
            <mxPoint x="130" y="220" as="sourcePoint" />
            <mxPoint x="190" y="220.34" as="targetPoint" />
            <Array as="points">
              <mxPoint x="160" y="220.34" />
            </Array>
          </mxGeometry>
        </mxCell>
        <mxCell id="KXOY8twD4fQq9Z1rYFRX-24" value="" style="endArrow=classic;html=1;rounded=0;strokeWidth=2;" edge="1" parent="1">
          <mxGeometry width="50" height="50" relative="1" as="geometry">
            <mxPoint x="120" y="359.65999999999997" as="sourcePoint" />
            <mxPoint x="180" y="359.65999999999997" as="targetPoint" />
          </mxGeometry>
        </mxCell>
        <mxCell id="KXOY8twD4fQq9Z1rYFRX-25" value="" style="endArrow=classic;html=1;rounded=0;strokeWidth=2;" edge="1" parent="1">
          <mxGeometry width="50" height="50" relative="1" as="geometry">
            <mxPoint x="130" y="440" as="sourcePoint" />
            <mxPoint x="190" y="440" as="targetPoint" />
          </mxGeometry>
        </mxCell>
        <mxCell id="KXOY8twD4fQq9Z1rYFRX-26" value="" style="endArrow=none;dashed=1;html=1;dashPattern=1 3;strokeWidth=2;rounded=0;" edge="1" parent="1">
          <mxGeometry width="50" height="50" relative="1" as="geometry">
            <mxPoint x="300" y="129.66" as="sourcePoint" />
            <mxPoint x="340" y="129.66" as="targetPoint" />
          </mxGeometry>
        </mxCell>
        <mxCell id="KXOY8twD4fQq9Z1rYFRX-27" value="" style="endArrow=none;dashed=1;html=1;dashPattern=1 3;strokeWidth=2;rounded=0;" edge="1" parent="1">
          <mxGeometry width="50" height="50" relative="1" as="geometry">
            <mxPoint x="340" y="129.66" as="sourcePoint" />
            <mxPoint x="340" y="290" as="targetPoint" />
          </mxGeometry>
        </mxCell>
        <mxCell id="KXOY8twD4fQq9Z1rYFRX-28" value="" style="endArrow=none;dashed=1;html=1;dashPattern=1 3;strokeWidth=2;rounded=0;" edge="1" parent="1">
          <mxGeometry width="50" height="50" relative="1" as="geometry">
            <mxPoint x="320" y="290" as="sourcePoint" />
            <mxPoint x="340" y="289.65999999999997" as="targetPoint" />
          </mxGeometry>
        </mxCell>
        <mxCell id="KXOY8twD4fQq9Z1rYFRX-29" value="" style="triangle;whiteSpace=wrap;html=1;rotation=-180;fillColor=#050505;" vertex="1" parent="1">
          <mxGeometry x="310" y="286.25" width="10" height="7.5" as="geometry" />
        </mxCell>
        <mxCell id="KXOY8twD4fQq9Z1rYFRX-31" value="" style="endArrow=none;dashed=1;html=1;dashPattern=1 3;strokeWidth=2;rounded=0;" edge="1" parent="1">
          <mxGeometry width="50" height="50" relative="1" as="geometry">
            <mxPoint x="320" y="303.67999999999995" as="sourcePoint" />
            <mxPoint x="340" y="304" as="targetPoint" />
          </mxGeometry>
        </mxCell>
        <mxCell id="KXOY8twD4fQq9Z1rYFRX-32" value="" style="endArrow=none;dashed=1;html=1;dashPattern=1 3;strokeWidth=2;rounded=0;" edge="1" parent="1">
          <mxGeometry width="50" height="50" relative="1" as="geometry">
            <mxPoint x="340" y="307.49999999999994" as="sourcePoint" />
            <mxPoint x="340" y="430" as="targetPoint" />
          </mxGeometry>
        </mxCell>
        <mxCell id="KXOY8twD4fQq9Z1rYFRX-33" value="" style="endArrow=none;dashed=1;html=1;dashPattern=1 3;strokeWidth=2;rounded=0;exitX=1;exitY=0.5;exitDx=0;exitDy=0;" edge="1" parent="1" source="KXOY8twD4fQq9Z1rYFRX-9">
          <mxGeometry width="50" height="50" relative="1" as="geometry">
            <mxPoint x="320" y="430.17" as="sourcePoint" />
            <mxPoint x="340" y="429.83" as="targetPoint" />
          </mxGeometry>
        </mxCell>
        <mxCell id="KXOY8twD4fQq9Z1rYFRX-34" value="" style="triangle;whiteSpace=wrap;html=1;rotation=-180;fillColor=#050505;" vertex="1" parent="1">
          <mxGeometry x="310" y="300" width="10" height="7.5" as="geometry" />
        </mxCell>
        <mxCell id="KXOY8twD4fQq9Z1rYFRX-36" value="" style="endArrow=none;dashed=1;html=1;dashPattern=1 3;strokeWidth=2;rounded=0;exitX=1;exitY=0.5;exitDx=0;exitDy=0;" edge="1" parent="1">
          <mxGeometry width="50" height="50" relative="1" as="geometry">
            <mxPoint x="300" y="360.06" as="sourcePoint" />
            <mxPoint x="340" y="359.89" as="targetPoint" />
          </mxGeometry>
        </mxCell>
        <mxCell id="KXOY8twD4fQq9Z1rYFRX-37" value="&amp;lt;&amp;lt;Include&amp;gt;&amp;gt;" style="rounded=0;whiteSpace=wrap;html=1;strokeColor=none;fillColor=#d1d1d1;fontSize=8;" vertex="1" parent="1">
          <mxGeometry x="320" y="320" width="50" height="20" as="geometry" />
        </mxCell>
        <mxCell id="KXOY8twD4fQq9Z1rYFRX-39" value="&amp;lt;&amp;lt;Include&amp;gt;&amp;gt;" style="rounded=0;whiteSpace=wrap;html=1;strokeColor=none;fillColor=#d1d1d1;fontSize=8;" vertex="1" parent="1">
          <mxGeometry x="320" y="240" width="50" height="20" as="geometry" />
        </mxCell>
        <mxCell id="KXOY8twD4fQq9Z1rYFRX-40" value="" style="endArrow=none;dashed=1;html=1;dashPattern=1 3;strokeWidth=2;rounded=0;" edge="1" parent="1">
          <mxGeometry width="50" height="50" relative="1" as="geometry">
            <mxPoint x="310" y="123.7" as="sourcePoint" />
            <mxPoint x="550" y="123.7" as="targetPoint" />
          </mxGeometry>
        </mxCell>
        <mxCell id="KXOY8twD4fQq9Z1rYFRX-42" value="&lt;font style=&quot;font-size: 9px;&quot;&gt;Si la commande est valide&lt;/font&gt;" style="shape=note;whiteSpace=wrap;html=1;backgroundOutline=1;darkOpacity=0.05;strokeWidth=0;" vertex="1" parent="1">
          <mxGeometry x="550" y="88.75" width="110" height="70" as="geometry" />
        </mxCell>
        <mxCell id="KXOY8twD4fQq9Z1rYFRX-43" value="" style="endArrow=none;dashed=1;html=1;dashPattern=1 3;strokeWidth=2;rounded=0;exitX=0.569;exitY=-0.026;exitDx=0;exitDy=0;exitPerimeter=0;" edge="1" parent="1">
          <mxGeometry width="50" height="50" relative="1" as="geometry">
            <mxPoint x="464.23" y="146.98000000000002" as="sourcePoint" />
            <mxPoint x="463.78" y="127.5" as="targetPoint" />
          </mxGeometry>
        </mxCell>
        <mxCell id="KXOY8twD4fQq9Z1rYFRX-45" value="" style="endArrow=none;dashed=1;html=1;dashPattern=1 3;strokeWidth=2;rounded=0;exitX=0.569;exitY=-0.026;exitDx=0;exitDy=0;exitPerimeter=0;" edge="1" parent="1" target="KXOY8twD4fQq9Z1rYFRX-44">
          <mxGeometry width="50" height="50" relative="1" as="geometry">
            <mxPoint x="464.45" y="178.43999999999994" as="sourcePoint" />
            <mxPoint x="463.55" y="120" as="targetPoint" />
          </mxGeometry>
        </mxCell>
        <mxCell id="KXOY8twD4fQq9Z1rYFRX-44" value="&amp;lt;&amp;lt;Extend&amp;gt;&amp;gt;" style="rounded=0;whiteSpace=wrap;html=1;strokeColor=none;fillColor=#d1d1d1;fontSize=8;" vertex="1" parent="1">
          <mxGeometry x="439" y="140" width="50" height="20" as="geometry" />
        </mxCell>
        <mxCell id="KXOY8twD4fQq9Z1rYFRX-46" value="" style="triangle;whiteSpace=wrap;html=1;rotation=-180;fillColor=#050505;" vertex="1" parent="1">
          <mxGeometry x="300" y="120" width="10" height="7.5" as="geometry" />
        </mxCell>
      </root>
    </mxGraphModel>
  </diagram>
</mxfile>
